DataType=double
version=3
OpenSimVersion=4.5.2-2025-05-03-6a4c6ec41
endheader
time	q	/jointset/head_joint/q/speed
4.642291002050042	0.6691919013196895	0.4980482228416315
4.655855403032479	0.6740472434854949	0.4758917020578729
4.66949124890666	0.6788588359732878	0.4853872839856989
4.68	0.6837072696998817	0.4699271858128182
4.688083478490558	0.6881989277543561	0.4345736908902501
4.7	0.6924764074125958	0.4232302853941921
4.713122319023379	0.6964869040180928	0.3755434062362372
4.728322699520457	0.700112120573639	0.3607587630015626
4.74	0.7039477928865292	0.4008740135396701
4.751378291962491	0.7078063616769313	0.3695276425265748
4.760250653329138	0.7114204720057328	0.3559960524727937
4.777031744133615	0.7149600761659922	0.3529344929856676
4.794367623442737	0.7182571132422069	0.3062005151904149
4.803919838328392	0.7211991751306833	0.2859793211064164
4.82	0.7240237536430891	0.2803386552130286
4.836143331561658	0.7268158260744439	0.2704818240111975
4.851835240768717	0.7292633237692616	0.2262757594789422
4.873284482520196	0.731437629856999	0.2114585130123852
4.88	0.7335284034118185	0.2077681578839922
4.9	0.7356064774998856	0.2082540537474976
4.921234223106926	0.7375162614417177	0.1638334186896571
4.94	0.738740361292026	0.09170253158688883
4.96	0.7395042886355361	0.06569899550749969
4.980607078982326	0.7401119902701049	0.05755695430963761
5.01799587354818	0.7406769642789789	0.05608396828541738
5.04	0.7412418882849185	0.0571526818631039
5.06178543551587	0.7417175700265053	0.02451930940153118
5.08	0.7417972235947569	-0.003613043938446057
5.12	0.7417074106512249	-0.01250273971560102
5.14	0.7415702821931108	-0.01423029936697693
5.163856668438443	0.7413306241920546	-0.04728805978127648
5.196080161671699	0.740687046078006	-0.07632459615936692
5.211961846066333	0.7398678166986977	-0.08562801500873445
5.223834300797098	0.7389599618929984	-0.1095428819123882
5.248621708037592	0.7376431658576633	-0.1473508887514491
5.271258130373251	0.7362677527458298	-0.117580772436537
5.28	0.7351187275731167	-0.1292700512892934
5.3	0.7337019938479835	-0.1502767966762915
5.317341179326728	0.7321576880012102	-0.162212758653372
5.330508751093371	0.7302521527792047	-0.2114207139052377
5.348195638687965	0.7280350239509898	-0.2288367329469118
5.36	0.7255272625340922	-0.2646122623510132
5.377113941953805	0.7229860404364302	-0.2461429932290465
5.38135499349468	0.7204092007109753	-0.2791617989499451
5.4	0.7174879502302522	-0.3011874136185366
5.412155590832813	0.7142740360032926	-0.3367841367652609
5.424534222217831	0.7109996844280058	-0.320276339805287
5.44	0.7075993684327863	-0.3607284685695856
5.445590768406136	0.7038788076332251	-0.3861508468570957
5.46	0.6999930876522888	-0.388353259306452
5.468536339235115	0.6960542144958662	-0.4144295945209678
5.481773464193692	0.6917336491785498	-0.4322793459027757
5.494725286685688	0.6873904931853266	-0.4458108907098827
5.50170316283385	0.6828448497354913	-0.4732235294702746
5.51870329326289	0.6780232482544911	-0.4759170923046642
5.52	0.6731547934986202	-0.5076497156688553
5.535085275360092	0.6680085341679476	-0.5156231017533364
5.54409719975199	0.6627634957106255	-0.530719018429228
5.555916700056803	0.657266690688685	-0.5561721726129785
5.56613041287841	0.6517113577109369	-0.5716936746837825
5.579024056694763	0.6458806836588985	-0.5798912985552566
5.580984812461466	0.6399567033825778	-0.6018091821261716
5.595413635884023	0.6338102482707941	-0.6188135367325659
5.601496125707374	0.6275738803777049	-0.6438375464670318
5.612518044860753	0.6211253891990473	-0.6446240674360668
5.623222110270033	0.6145131789104035	-0.6684558207166157
5.634175267122646	0.6077788999420592	-0.6794132148407407
5.64	0.6008516454055874	-0.6981449725310939
5.649849221314033	0.593826056633436	-0.7222829141944518
5.66	0.5866252862613242	-0.7255665351021248
5.665801497345273	0.5792556694999998	-0.7400255372568528
5.676139453286458	0.5717785597927507	-0.7561442648191753
5.686384614806046	0.5641322079926561	-0.7627746532959948
5.696542021913197	0.5563345606337858	-0.7810296932050742
5.70023506013405	0.5484302590496969	-0.8066753975062697
5.712330514658193	0.5403950413195051	-0.812909718490973
5.72	0.5322041964865535	-0.8234628673314801
5.726533770882794	0.523885498059686	-0.8406930034129796
5.736384946292582	0.5154611535284298	-0.8600901598995091
5.746169569691424	0.5069068260621432	-0.8647571095127622
5.755891238471541	0.4982146953930786	-0.8731079725320884
5.76	0.4894007645839803	-0.885715101564705
5.770519314537291	0.4804787696610534	-0.9024941680301963
5.78	0.4714543313153974	-0.9158330740721993
5.784711988870329	0.4623106168901956	-0.9214423984281748
5.794214572162225	0.4530495890246249	-0.9292873549782035
5.803669870488459	0.4436797112973003	-0.9393391901920909
5.813080638708353	0.4342079611574741	-0.9515019249376079
5.82	0.424639930953672	-0.9653850798575483
5.825670121203611	0.4149791832087776	-0.9791932209243961
5.836409928901283	0.4052242753845421	-0.9871395645887849
5.841071816556451	0.3953720874037907	-0.9932726534910693
5.850330075715529	0.3854268541426956	-0.9999741415584382
5.859556193110842	0.3753929130246997	-1.007091393799773
